<?xml version="1.0" encoding="utf-8"?>
<svg xmlns="http://www.w3.org/2000/svg" xmlns:xlink="http://www.w3.org/1999/xlink"
     aria-label="Minecraft" role="img"
     viewBox="0 0 40 40" stroke-linecap="square" fill="none">

    <g id="a" transform="matrix(1.484375 0.859375 0 1.71875 5.9375 11.09375)">

        <path fill="#432" d="M.5.5h9v9h-9"/>

        <path stroke="#864" d="M2 8v1h2V8h5V7 H7V5"/>

        <path stroke="#643" d="M1 5zM2 9zM1 8V7h2V6h1M5 9h2V8H6V4M7 6h1v1M9 9zM9 4v1"/>

        <path stroke="#a75" d="M1 7h1M4 7h1M9 6z"/>

        <path stroke="#555" d="M5 5z"/>

        <path stroke="#593" d="M4 4V1h4v2H7V2H4v1H2v1"/>

        <path stroke="#6a4" d="M2 1h1M6 1zM7 2zM9 1v1"/>

        <path stroke="#7c5" d="M5 3zM3 2h1"/>

        <path stroke="#9c6" d="M1 1v1h1M8 1z"/>

    </g>

    <use xlink:href="#a" transform="matrix(-1 0 0 1 40.078125 0)" opacity=".7"/>

    <g transform="matrix(-1.484375 0.859375-1.484375-0.859375 34.921875 12.421875)">

        <path fill="#7b4" d="M.5.5h9v9h-9"/>

        <path stroke="#8c5" d="M1 1zM3 1zM4 7zM3 4v2H1v2h3v1h2V7M2 3h4V1H5v1h3M7 4v1H4M9 4v2H8v3"/>

        <path stroke="#ad7" d="M1 3v2M1 7zM1 9zM3 3zM4 4zM5 1zM5 3zM5 5v1M5 8v1M7 2v1M8 7h1"/>

    </g>
    <g transform="translate(16 16)">
        <path d="M12 2C6.48 2 2 6.48 2 12C2 17.52 6.48 22 12 22C17.52 22 22 17.52 22 12C22 6.48 17.52 2 12 2ZM6.6 11.23C6.77 10.04 7.3 8.97 8.13 8.13C10.13 6.14 13.28 6.03 15.42 7.77V6.82C15.42 6.41 15.76 6.07 16.17 6.07C16.58 6.07 16.92 6.41 16.92 6.82V9.49C16.92 9.9 16.58 10.24 16.17 10.24H13.5C13.09 10.24 12.75 9.9 12.75 9.49C12.75 9.08 13.09 8.74 13.5 8.74H14.25C12.7 7.66 10.56 7.81 9.18 9.19C8.58 9.79 8.2 10.57 8.07 11.44C8.02 11.81 7.7 12.08 7.33 12.08C7.29 12.08 7.26 12.08 7.22 12.07C6.83 12.02 6.54 11.64 6.6 11.23ZM15.87 15.87C14.8 16.94 13.4 17.47 12 17.47C10.78 17.47 9.57 17.04 8.57 16.23V17.17C8.57 17.58 8.23 17.92 7.82 17.92C7.41 17.92 7.07 17.58 7.07 17.17V14.5C7.07 14.09 7.41 13.75 7.82 13.75H10.49C10.9 13.75 11.24 14.09 11.24 14.5C11.24 14.91 10.9 15.25 10.49 15.25H9.74C11.29 16.33 13.43 16.18 14.81 14.8C15.41 14.2 15.79 13.42 15.92 12.55C15.98 12.14 16.35 11.85 16.77 11.91C17.18 11.97 17.46 12.35 17.41 12.76C17.23 13.97 16.7 15.04 15.87 15.87Z"
              fill="#77BB44"/>
    </g>


</svg>